<svg width="166" height="168" viewBox="0 0 166 168" fill="none" xmlns="http://www.w3.org/2000/svg">
<path d="M66.3311 0H33.2335L0 49.0897L32.9826 49.1074L66.3311 0Z" fill="#F6F6F6"/>
<path d="M132.829 0H99.7423L33.2334 98.2148H66.331L132.829 0Z" fill="#FBFAFC"/>
<path d="M99.6689 98.1881H132.756L166 49.0895L133.007 49.0807L99.6689 98.1881Z" fill="white"/>
<path d="M66.3311 98.2155H33.2335L0 49.0905L32.9826 49.1081L66.3311 98.2155Z" fill="white"/>
<path d="M99.6689 0H132.756L166 49.0897L133.007 49.1074L99.6689 0Z" fill="#F6F6F6"/>
<path d="M143.224 152.304C143.224 147.569 143.254 142.835 143.193 138.1C143.193 137.402 143.375 137.22 144.071 137.25C145.855 137.311 147.64 137.281 149.394 137.25C149.999 137.25 150.181 137.402 150.15 138.009C150.12 141.226 150.15 144.474 150.12 147.691C150.12 148.419 150.302 148.632 151.028 148.601C153.417 148.571 155.807 148.571 158.196 148.662C158.922 148.692 159.073 148.48 159.073 147.782C159.043 144.565 159.073 141.317 159.043 138.1C159.043 137.402 159.225 137.22 159.92 137.25C161.735 137.311 163.55 137.281 165.335 137.25C165.849 137.25 166 137.402 166 137.918C166 147.509 166 157.099 166 166.69C166 167.206 165.879 167.388 165.335 167.388C163.459 167.357 161.584 167.357 159.739 167.388C159.134 167.388 159.043 167.145 159.043 166.629C159.073 162.896 159.013 159.193 159.073 155.46C159.073 154.671 158.862 154.489 158.106 154.52C155.776 154.58 153.447 154.58 151.118 154.52C150.271 154.489 150.12 154.793 150.15 155.551C150.181 159.163 150.15 162.805 150.181 166.417C150.181 167.115 150.06 167.388 149.303 167.357C147.549 167.297 145.795 167.297 144.071 167.357C143.345 167.388 143.224 167.115 143.224 166.477C143.224 161.773 143.224 157.039 143.224 152.304Z" fill="white"/>
<path d="M118.601 137.251C117.996 139.163 117.422 140.893 116.907 142.653C116.756 143.199 116.423 143.199 116.03 143.199C113.58 143.199 111.13 143.23 108.68 143.199C107.954 143.199 107.652 143.351 107.712 144.14C107.773 145.385 107.773 146.659 107.712 147.934C107.682 148.511 107.894 148.662 108.438 148.662C110.767 148.632 113.096 148.662 115.425 148.632C116.061 148.632 116.272 148.784 116.242 149.451C116.182 150.939 116.182 152.395 116.212 153.883C116.212 154.459 116.091 154.672 115.456 154.672C113.126 154.641 110.797 154.672 108.468 154.641C107.863 154.641 107.682 154.793 107.682 155.4C107.712 157.009 107.742 158.587 107.682 160.195C107.652 160.863 107.924 160.984 108.529 160.984C111.644 160.954 114.79 160.984 117.906 160.954C118.601 160.954 118.813 161.106 118.783 161.834C118.722 163.473 118.753 165.082 118.783 166.721C118.783 167.236 118.692 167.479 118.087 167.479C112.612 167.419 107.107 167.388 101.632 167.388C100.846 167.388 100.906 166.994 100.906 166.478C100.937 159.012 100.937 151.546 100.937 144.08C100.937 142.046 100.937 140.013 100.937 138.01C100.937 137.615 100.906 137.312 101.481 137.312C107.137 137.281 112.824 137.251 118.601 137.251Z" fill="white"/>
<path d="M67.2103 137.311C69.6907 137.311 72.171 137.342 74.6513 137.281C75.347 137.281 75.5285 137.493 75.4982 138.161C75.4378 139.345 75.4378 140.559 75.4982 141.742C75.5285 142.471 75.2865 142.592 74.6211 142.592C71.566 142.562 68.4808 142.592 65.4257 142.562C64.7603 142.562 64.5183 142.714 64.5485 143.412C64.609 144.808 64.609 146.174 64.5485 147.57C64.5183 148.268 64.6998 148.541 65.456 148.51C66.9684 148.419 68.4505 148.48 69.9629 148.753C73.8951 149.421 76.3149 152.061 76.9501 156.25C77.2224 158.101 77.1316 159.922 76.5267 161.713C74.5908 167.358 67.3918 169.786 62.4312 166.508C60.1021 164.96 58.8014 162.775 58.6502 159.892C58.6199 159.042 58.8317 158.647 59.7391 158.678C61.0095 158.738 62.2497 158.708 63.5201 158.678C64.0646 158.678 64.2763 158.89 64.3973 159.376C64.972 161.773 66.0912 162.623 68.1783 162.35C70.1444 162.107 71.4753 160.347 71.3543 158.071C71.324 157.585 71.2636 157.099 71.1426 156.614C70.7493 154.884 69.7814 153.822 67.906 153.64C65.5165 153.397 63.1269 153.579 60.7373 153.579C58.8922 153.579 58.8922 153.609 58.8922 151.728C58.8922 147.266 58.9224 142.805 58.8619 138.343C58.8619 137.463 59.1342 137.281 59.9509 137.311C62.3707 137.372 64.7905 137.311 67.2103 137.311Z" fill="white"/>
<path d="M133.938 167.813C130.338 167.873 126.739 166.872 123.865 163.928C121.688 161.712 120.538 158.95 120.054 155.915C119.51 152.425 119.782 148.996 120.962 145.657C123.381 138.859 129.007 136.734 134.906 137.008C136.63 137.099 138.294 137.463 139.927 138.07C140.471 138.282 140.592 138.525 140.411 139.102C139.927 140.498 139.503 141.894 139.11 143.32C138.959 143.867 138.747 143.958 138.233 143.745C137.023 143.29 135.783 142.956 134.482 142.986C130.762 143.078 128.493 144.807 127.586 148.419C126.951 150.908 126.92 153.427 127.404 155.915C128.13 159.649 130.792 161.773 134.634 161.773C136.055 161.773 137.447 161.53 138.808 161.166C139.231 161.045 139.473 161.045 139.594 161.561C140.018 163.078 140.471 164.565 140.955 166.052C141.137 166.629 140.834 166.811 140.411 166.963C138.445 167.661 136.388 167.722 133.938 167.813Z" fill="white"/>
<path d="M4.59767 153.397C6.56379 149.816 8.43915 146.386 10.4658 142.714C8.77188 142.714 7.25948 142.714 5.74709 142.714C4.38594 142.714 3.05503 142.653 1.69388 142.684C1.17966 142.684 0.937682 142.593 0.937682 141.986C0.998177 140.711 0.96793 139.406 0.937682 138.101C0.937682 137.676 1.02843 137.494 1.51239 137.494C7.19899 137.494 12.9158 137.494 18.6024 137.494C18.7234 137.828 18.4814 138.04 18.3604 138.253C16.5456 141.652 14.7307 145.081 12.8856 148.48C12.7041 148.814 12.4621 149.057 13.0671 149.27C16.3943 150.453 17.937 153.063 18.6024 156.371C18.9049 157.859 18.8747 159.376 18.5419 160.863C17.6043 165.021 14.519 167.601 10.1935 167.904C6.77552 168.147 3.81123 167.237 1.63339 164.444C0.514216 163.018 0.0604957 161.349 0 159.558C0 159.042 0.120989 158.86 0.665451 158.89C2.05685 158.921 3.41801 158.921 4.80941 158.89C5.26313 158.89 5.44461 159.072 5.53536 159.497C6.11007 161.713 7.44097 162.654 9.58857 162.441C11.4337 162.259 12.7646 160.772 12.9158 158.739C13.1276 155.795 11.6152 153.943 8.71138 153.518C7.41073 153.276 6.07982 153.336 4.59767 153.397Z" fill="white"/>
<path d="M49.2131 142.623C46.1884 142.623 43.3753 142.592 40.5925 142.623C39.927 142.623 39.6851 142.501 39.7153 141.773C39.7758 140.559 39.7153 139.314 39.6851 138.1C39.6851 137.706 39.7456 137.463 40.2295 137.463C45.9464 137.463 51.6632 137.463 57.4103 137.463C57.4406 137.858 57.2288 138.07 57.0776 138.343C55.3232 141.651 53.5688 144.96 51.7842 148.237C51.4817 148.814 51.3607 149.057 52.1472 149.391C55.5349 150.726 56.9868 153.549 57.4708 156.948C57.6825 158.374 57.5918 159.831 57.2288 161.257C56.2306 165.112 53.1454 167.601 49.0316 167.904C46.4908 168.086 44.1617 167.631 42.0746 166.083C39.8665 164.444 38.8986 162.168 38.7776 159.497C38.7474 159.012 38.9289 158.86 39.4128 158.86C40.8345 158.89 42.2259 158.89 43.6475 158.86C44.0408 158.86 44.2827 158.951 44.313 159.406C44.4945 161.713 46.7933 162.805 48.8804 162.32C50.9373 161.834 52.1472 159.649 51.7237 157.312C51.3305 155.187 49.9391 153.852 47.7915 153.518C46.6723 153.336 45.5229 153.336 44.4037 153.336C44.1315 153.336 43.7383 153.549 43.5568 153.245C43.4056 153.002 43.708 152.759 43.8593 152.517C45.4624 149.573 47.0655 146.659 48.6687 143.715C48.7897 143.442 48.9107 143.199 49.2131 142.623Z" fill="white"/>
<path d="M99.6069 137.251C99.0019 139.163 98.4272 140.954 97.8525 142.775C97.7013 143.23 97.4291 143.199 97.0661 143.199C95.7049 143.199 94.374 143.23 93.0129 143.199C92.2567 143.169 92.0449 143.351 92.0449 144.14C92.1357 151.485 92.1357 158.83 92.2264 166.174C92.2264 167.115 92.0449 167.449 91.0468 167.388C89.4436 167.297 87.8707 167.297 86.2676 167.388C85.4207 167.419 85.1484 167.236 85.1484 166.326C85.1787 158.981 85.1484 151.637 85.2089 144.292C85.2089 143.382 84.9367 143.169 84.0898 143.199C82.2749 143.26 80.46 143.199 78.6754 143.23C78.1612 143.23 78.0099 143.078 78.0099 142.562C78.0402 141.105 78.0704 139.679 78.0099 138.222C77.9797 137.463 78.1612 137.251 78.9476 137.251C84.2107 137.281 89.5041 137.281 94.7673 137.281C96.3401 137.251 97.9433 137.251 99.6069 137.251Z" fill="white"/>
<path d="M37.5684 152.758C37.5684 150.482 37.6289 148.206 37.5684 145.93C37.4171 141.165 34.8461 138.251 30.1576 137.553C26.1347 136.946 20.5388 138.797 20.0851 145.019C19.7221 150.087 19.8129 155.156 20.0851 160.224C20.2666 163.715 22.142 165.991 25.2877 167.265C30.9441 169.542 36.7214 166.325 37.5079 160.406C37.8406 157.887 37.6289 155.308 37.5684 152.758ZM32.0028 158.616C32.0028 159.101 31.9423 159.587 31.8818 160.073C31.6398 161.894 30.4601 162.925 28.6453 162.895C27.0119 162.865 25.681 161.59 25.6507 159.86C25.5902 157.432 25.6205 155.004 25.6205 152.576C25.6205 150.3 25.5902 148.024 25.6205 145.747C25.681 143.502 26.8909 142.318 28.978 142.379C30.4299 142.409 31.6095 143.441 31.8818 144.867C31.9725 145.444 32.033 146.021 32.033 146.628C32.033 150.603 32.033 154.61 32.0028 158.616Z" fill="white"/>
</svg>
