<svg width="22" height="18" viewBox="0 0 22 18" fill="none" xmlns="http://www.w3.org/2000/svg">
<path d="M2 18C1.45 18 0.979002 17.8236 0.587002 17.4708C0.195002 17.118 -0.000664969 16.6944 1.69779e-06 16.2V5.4C1.69779e-06 4.905 0.196002 4.4811 0.588002 4.1283C0.980002 3.7755 1.45067 3.5994 2 3.6H5.15L7 1.8H13V5.4H16V8.1H20V16.2C20 16.695 19.804 17.1189 19.412 17.4717C19.02 17.8245 18.5493 18.0006 18 18H2ZM10 14.85C11.25 14.85 12.3127 14.4561 13.188 13.6683C14.0633 12.8805 14.5007 11.9244 14.5 10.8C14.5 9.675 14.0623 8.7186 13.187 7.9308C12.3117 7.143 11.2493 6.7494 10 6.75C8.75 6.75 7.68734 7.1439 6.812 7.9317C5.93667 8.7195 5.49934 9.6756 5.5 10.8C5.5 11.925 5.93767 12.8814 6.813 13.6692C7.68834 14.457 8.75067 14.8506 10 14.85ZM10 13.05C9.3 13.05 8.70834 12.8325 8.225 12.3975C7.74167 11.9625 7.5 11.43 7.5 10.8C7.5 10.17 7.74167 9.6375 8.225 9.2025C8.70834 8.7675 9.3 8.55 10 8.55C10.7 8.55 11.2917 8.7675 11.775 9.2025C12.2583 9.6375 12.5 10.17 12.5 10.8C12.5 11.43 12.2583 11.9625 11.775 12.3975C11.2917 12.8325 10.7 13.05 10 13.05ZM18 5.4V3.6H16V1.8H18V0H20V1.8H22V3.6H20V5.4H18Z" fill="#000000"/>
</svg>
