<svg width="20" height="20" viewBox="0 0 20 20" fill="none" xmlns="http://www.w3.org/2000/svg">
<path d="M10.8227 0.540494L19.8727 18.3784C19.9561 18.5427 20 18.7291 20 18.9189C20 19.1087 19.9561 19.2951 19.8727 19.4594C19.7893 19.6238 19.6694 19.7603 19.525 19.8552C19.3806 19.95 19.2168 20 19.05 20H0.950007C0.783243 20 0.619419 19.95 0.475 19.8552C0.33058 19.7603 0.210654 19.6238 0.127274 19.4594C0.0438942 19.2951 -1.05912e-06 19.1087 0 18.9189C1.05916e-06 18.7291 0.0438985 18.5427 0.12728 18.3784L9.17727 0.540494C9.26066 0.376162 9.38059 0.2397 9.52501 0.144824C9.66942 0.0499477 9.83324 0 10 0C10.1668 0 10.3306 0.0499477 10.475 0.144824C10.6194 0.2397 10.7393 0.376162 10.8227 0.540494ZM9.04997 14.5946V16.7568H10.95V14.5946H9.04997ZM9.04997 7.027V12.4324H10.95V7.027H9.04997Z" fill="#000000"/>
</svg>
