<svg width="16" height="16" viewBox="0 0 16 16" fill="none" xmlns="http://www.w3.org/2000/svg">
<path d="M0.769793 16C0.47097 16 0.250102 15.8519 0.107186 15.5556C-0.0357288 15.2593 -0.0357288 14.963 0.107186 14.6667L7.3179 0.444444C7.46082 0.148148 7.68818 0 8 0C8.31181 0 8.53918 0.148148 8.68209 0.444444L15.8928 14.6667C16.0357 14.963 16.0357 15.2593 15.8928 15.5556C15.7499 15.8519 15.529 16 15.2302 16H0.769793ZM8 6.22222C7.77913 6.22222 7.59412 6.30726 7.44497 6.47733C7.2953 6.648 7.22046 6.85926 7.22046 7.11111V9.77778C7.22046 10.0296 7.2953 10.2406 7.44497 10.4107C7.59412 10.5813 7.77913 10.6667 8 10.6667C8.22087 10.6667 8.40614 10.5813 8.55581 10.4107C8.70496 10.2406 8.77954 10.0296 8.77954 9.77778V7.11111C8.77954 6.85926 8.70496 6.648 8.55581 6.47733C8.40614 6.30726 8.22087 6.22222 8 6.22222ZM8 13.3333C8.22087 13.3333 8.40614 13.248 8.55581 13.0773C8.70496 12.9073 8.77954 12.6963 8.77954 12.4444C8.77954 12.1926 8.70496 11.9816 8.55581 11.8116C8.40614 11.6409 8.22087 11.5556 8 11.5556C7.77913 11.5556 7.59412 11.6409 7.44497 11.8116C7.2953 11.9816 7.22046 12.1926 7.22046 12.4444C7.22046 12.6963 7.2953 12.9073 7.44497 13.0773C7.59412 13.248 7.77913 13.3333 8 13.3333Z" fill="#FF1747"/>
</svg>
