<svg width="17" height="10" viewBox="0 0 17 10" fill="none" xmlns="http://www.w3.org/2000/svg">
<path d="M16.6636 1.98156L9.12797 9.74653C9.03826 9.8387 8.94107 9.90413 8.83641 9.94284C8.73175 9.98155 8.61961 10.0006 8.5 9.99999C8.38039 9.99999 8.26825 9.98063 8.16359 9.94192C8.05893 9.90321 7.96174 9.83808 7.87203 9.74653L0.313984 1.98156C0.104661 1.76651 0 1.49769 0 1.17511C0 0.852533 0.112137 0.576037 0.336412 0.345622C0.560686 0.115208 0.822339 2.38419e-07 1.12137 2.38419e-07C1.4204 2.38419e-07 1.68206 0.115208 1.90633 0.345622L8.5 7.11981L15.0937 0.345622C15.303 0.130569 15.5611 0.023041 15.8679 0.023041C16.1747 0.023041 16.4399 0.138249 16.6636 0.368663C16.8879 0.599077 17 0.867894 17 1.17511C17 1.48233 16.8879 1.75115 16.6636 1.98156Z" fill="#8B8B8B"/>
</svg>
