<svg width="12" height="12" viewBox="0 0 12 12" fill="none" xmlns="http://www.w3.org/2000/svg">
<path d="M11.7379 0.309113C11.905 0.5062 11.9886 0.757038 11.9886 1.06163C11.9886 1.36622 11.905 1.61706 11.7379 1.81415L8.2051 6.00674L11.7379 10.1993C11.905 10.3964 11.9922 10.643 11.9995 10.939C12.0074 11.2342 11.9202 11.4894 11.7379 11.7044C11.5707 11.9015 11.358 12 11.0997 12C10.8414 12 10.6286 11.9015 10.4615 11.7044L6.26779 6.75926C6.17662 6.65175 6.11189 6.53529 6.0736 6.40987C6.03592 6.28445 6.01708 6.15008 6.01708 6.00674C6.01708 5.8634 6.03592 5.72903 6.0736 5.60361C6.11189 5.47819 6.17662 5.36173 6.26779 5.25422L10.4615 0.309113C10.6286 0.112024 10.8377 0.00918007 11.0887 0.000579834C11.3391 -0.00873756 11.5555 0.0941076 11.7379 0.309113ZM5.72078 0.309113C5.88792 0.5062 5.97149 0.757038 5.97149 1.06163C5.97149 1.36622 5.88792 1.61706 5.72078 1.81415L2.18803 6.00674L5.72078 10.1993C5.88792 10.3964 5.97544 10.643 5.98334 10.939C5.99064 11.2342 5.90312 11.4894 5.72078 11.7044C5.55364 11.9015 5.34091 12 5.08261 12C4.8243 12 4.61157 11.9015 4.44443 11.7044L0.250712 6.75926C0.159545 6.65175 0.0951195 6.53529 0.0574369 6.40987C0.019146 6.28445 0 6.15008 0 6.00674C0 5.8634 0.019146 5.72903 0.0574369 5.60361C0.0951195 5.47819 0.159545 5.36173 0.250712 5.25422L4.44443 0.309113C4.61157 0.112024 4.82035 0.00918007 5.07075 0.000579834C5.32177 -0.00873756 5.53844 0.0941076 5.72078 0.309113Z" fill="#000000"/>
</svg>
