<svg width="32" height="32" viewBox="0 0 32 32" fill="none" xmlns="http://www.w3.org/2000/svg">
<path id="Vector" d="M16 0C12.8355 0 9.74207 0.938384 7.11088 2.69649C4.4797 4.45459 2.42894 6.95345 1.21793 9.87706C0.0069325 12.8007 -0.309921 16.0177 0.307443 19.1214C0.924806 22.2251 2.44866 25.0761 4.6863 27.3137C6.92394 29.5513 9.77486 31.0752 12.8786 31.6926C15.9823 32.3099 19.1993 31.9931 22.1229 30.7821C25.0466 29.5711 27.5454 27.5203 29.3035 24.8891C31.0616 22.2579 32 19.1645 32 16C31.9961 11.7577 30.3091 7.69035 27.3094 4.69062C24.3096 1.69089 20.2423 0.00392257 16 0ZM16 28.4444C13.5387 28.4444 11.1327 27.7146 9.08624 26.3472C7.03976 24.9798 5.44473 23.0362 4.50284 20.7623C3.56095 18.4884 3.31451 15.9862 3.79468 13.5722C4.27485 11.1582 5.46007 8.94083 7.20045 7.20045C8.94084 5.46006 11.1582 4.27484 13.5722 3.79467C15.9862 3.3145 18.4884 3.56094 20.7623 4.50283C23.0362 5.44472 24.9798 7.03976 26.3472 9.08624C27.7146 11.1327 28.4444 13.5387 28.4444 16C28.4405 19.2993 27.1282 22.4623 24.7952 24.7952C22.4623 27.1282 19.2993 28.4405 16 28.4444ZM22 12.5185L18.5185 16L22 19.4815C22.1657 19.6466 22.2972 19.8429 22.387 20.059C22.4767 20.2751 22.5229 20.5068 22.5229 20.7407C22.5229 20.9747 22.4767 21.2064 22.387 21.4225C22.2972 21.6386 22.1657 21.8348 22 22C21.6645 22.3311 21.2121 22.5168 20.7407 22.5168C20.2694 22.5168 19.817 22.3311 19.4815 22L16 18.5185L12.5185 22C12.183 22.3311 11.7306 22.5168 11.2593 22.5168C10.7879 22.5168 10.3355 22.3311 10 22C9.83427 21.8348 9.70277 21.6386 9.61304 21.4225C9.52331 21.2064 9.47712 20.9747 9.47712 20.7407C9.47712 20.5068 9.52331 20.2751 9.61304 20.059C9.70277 19.8429 9.83427 19.6466 10 19.4815L13.4815 16L10 12.5185C9.66603 12.1845 9.4784 11.7316 9.4784 11.2593C9.4784 10.7869 9.66603 10.334 10 10C10.334 9.66602 10.787 9.4784 11.2593 9.4784C11.7316 9.4784 12.1845 9.66602 12.5185 10L16 13.4815L19.4815 10C19.8155 9.66602 20.2684 9.4784 20.7407 9.4784C21.2131 9.4784 21.666 9.66602 22 10C22.334 10.334 22.5216 10.7869 22.5216 11.2593C22.5216 11.7316 22.334 12.1845 22 12.5185Z" fill="#6A009E"/>
</svg>
