<svg width="20" height="20" viewBox="0 0 20 20" fill="none" xmlns="http://www.w3.org/2000/svg">
<path d="M11.924 20H8.07603C7.8195 20 7.59717 19.9167 7.40905 19.75C7.22093 19.5833 7.10976 19.375 7.07556 19.125L6.76772 16.8C6.5454 16.7167 6.33607 16.6167 6.13974 16.5C5.94272 16.3833 5.75015 16.2583 5.56203 16.125L3.33022 17.025C3.0908 17.1083 2.85137 17.1167 2.61194 17.05C2.37251 16.9833 2.18439 16.8417 2.04757 16.625L0.149254 13.4C0.0124378 13.1833 -0.0303172 12.95 0.0209888 12.7C0.0722948 12.45 0.20056 12.25 0.405784 12.1L2.32976 10.675C2.31266 10.5583 2.3041 10.4457 2.3041 10.337V9.662C2.3041 9.554 2.31266 9.44167 2.32976 9.325L0.405784 7.9C0.20056 7.75 0.0722948 7.55 0.0209888 7.3C-0.0303172 7.05 0.0124378 6.81667 0.149254 6.6L2.04757 3.375C2.16729 3.14167 2.35096 2.99567 2.5986 2.937C2.84692 2.879 3.0908 2.89167 3.33022 2.975L5.56203 3.875C5.75015 3.74167 5.94683 3.61667 6.15205 3.5C6.35728 3.38333 6.5625 3.28333 6.76772 3.2L7.07556 0.875C7.10976 0.625 7.22093 0.416667 7.40905 0.25C7.59717 0.0833333 7.8195 0 8.07603 0H11.924C12.1805 0 12.4028 0.0833333 12.591 0.25C12.7791 0.416667 12.8902 0.625 12.9244 0.875L13.2323 3.2C13.4546 3.28333 13.6643 3.38333 13.8613 3.5C14.0576 3.61667 14.2498 3.74167 14.438 3.875L16.6698 2.975C16.9092 2.89167 17.1486 2.88333 17.3881 2.95C17.6275 3.01667 17.8156 3.15833 17.9524 3.375L19.8507 6.6C19.9876 6.81667 20.0303 7.05 19.979 7.3C19.9277 7.55 19.7994 7.75 19.5942 7.9L17.6702 9.325C17.6873 9.44167 17.6959 9.554 17.6959 9.662V10.337C17.6959 10.4457 17.6788 10.5583 17.6446 10.675L19.5686 12.1C19.7738 12.25 19.9021 12.45 19.9534 12.7C20.0047 12.95 19.9619 13.1833 19.8251 13.4L17.9268 16.6C17.79 16.8167 17.5977 16.9627 17.3501 17.038C17.1018 17.1127 16.8579 17.1083 16.6185 17.025L14.438 16.125C14.2498 16.2583 14.0532 16.3833 13.8479 16.5C13.6427 16.6167 13.4375 16.7167 13.2323 16.8L12.9244 19.125C12.8902 19.375 12.7791 19.5833 12.591 19.75C12.4028 19.9167 12.1805 20 11.924 20ZM10.0513 13.5C11.0432 13.5 11.8898 13.1583 12.591 12.475C13.2921 11.7917 13.6427 10.9667 13.6427 10C13.6427 9.03333 13.2921 8.20833 12.591 7.525C11.8898 6.84167 11.0432 6.5 10.0513 6.5C9.04229 6.5 8.19129 6.84167 7.49832 7.525C6.80603 8.20833 6.45989 9.03333 6.45989 10C6.45989 10.9667 6.80603 11.7917 7.49832 12.475C8.19129 13.1583 9.04229 13.5 10.0513 13.5ZM10.0513 11.5C9.62376 11.5 9.26051 11.354 8.96157 11.062C8.66194 10.7707 8.51213 10.4167 8.51213 10C8.51213 9.58333 8.66194 9.22933 8.96157 8.938C9.26051 8.646 9.62376 8.5 10.0513 8.5C10.4789 8.5 10.8424 8.646 11.1421 8.938C11.441 9.22933 11.5905 9.58333 11.5905 10C11.5905 10.4167 11.441 10.7707 11.1421 11.062C10.8424 11.354 10.4789 11.5 10.0513 11.5ZM8.97388 18H11.0005L11.3596 15.35C11.8898 15.2167 12.3816 15.0207 12.8352 14.762C13.288 14.504 13.7026 14.1917 14.0788 13.825L16.6185 14.85L17.6189 13.15L15.4128 11.525C15.4983 11.2917 15.5581 11.0457 15.5924 10.787C15.6266 10.529 15.6437 10.2667 15.6437 10C15.6437 9.73333 15.6266 9.47067 15.5924 9.212C15.5581 8.954 15.4983 8.70833 15.4128 8.475L17.6189 6.85L16.6185 5.15L14.0788 6.2C13.7026 5.81667 13.288 5.49567 12.8352 5.237C12.3816 4.979 11.8898 4.78333 11.3596 4.65L11.0261 2H8.99953L8.64039 4.65C8.11023 4.78333 7.61872 4.979 7.16586 5.237C6.71231 5.49567 6.29742 5.80833 5.92117 6.175L3.38153 5.15L2.38106 6.85L4.58722 8.45C4.50171 8.7 4.44185 8.95 4.40765 9.2C4.37345 9.45 4.35634 9.71667 4.35634 10C4.35634 10.2667 4.37345 10.525 4.40765 10.775C4.44185 11.025 4.50171 11.275 4.58722 11.525L2.38106 13.15L3.38153 14.85L5.92117 13.8C6.29742 14.1833 6.71231 14.504 7.16586 14.762C7.61872 15.0207 8.11023 15.2167 8.64039 15.35L8.97388 18Z" fill="#000000"/>
</svg>
