<svg width="20" height="20" viewBox="0 0 20 20" fill="none" xmlns="http://www.w3.org/2000/svg">
<path d="M17.7778 18H2.22222V7H17.7778M17.7778 2H16.6667V0H14.4444V2H5.55556V0H3.33333V2H2.22222C1.63285 2 1.06762 2.21071 0.650874 2.58579C0.234126 2.96086 0 3.46957 0 4V18C0 18.5304 0.234126 19.0391 0.650874 19.4142C1.06762 19.7893 1.63285 20 2.22222 20H17.7778C18.3671 20 18.9324 19.7893 19.3491 19.4142C19.7659 19.0391 20 18.5304 20 18V4C20 3.46957 19.7659 2.96086 19.3491 2.58579C18.9324 2.21071 18.3671 2 17.7778 2ZM15.0333 10.06L13.8556 9L8.43333 13.88L6.07778 11.76L4.9 12.82L8.43333 16L15.0333 10.06Z" fill="#000000"/>
</svg>
