<svg width="32" height="24" viewBox="0 0 32 24" fill="none" xmlns="http://www.w3.org/2000/svg">
<path opacity="0.4" d="M16 0C8.72727 0 2.51636 4.976 0 12C2.51636 19.024 8.72727 24 16 24C23.2727 24 29.4836 19.024 32 12C29.4836 4.976 23.2727 0 16 0ZM16 20C11.9855 20 8.72727 16.416 8.72727 12C8.72727 7.584 11.9855 4 16 4C20.0145 4 23.2727 7.584 23.2727 12C23.2727 16.416 20.0145 20 16 20ZM16 7.2C13.5855 7.2 11.6364 9.344 11.6364 12C11.6364 14.656 13.5855 16.8 16 16.8C18.4145 16.8 20.3636 14.656 20.3636 12C20.3636 9.344 18.4145 7.2 16 7.2Z" fill="#8B8B8B"/>
</svg>
