<svg width="32" height="24" viewBox="0 0 32 24" fill="none" xmlns="http://www.w3.org/2000/svg">
<g opacity="0.5">
<path d="M21.58 21.2767L18.352 18.2266C17.1037 18.6481 15.7543 18.7261 14.4608 18.4517C13.1674 18.1773 11.9831 17.5616 11.0456 16.6765C10.1082 15.7913 9.45628 14.6729 9.16566 13.4515C8.87504 12.2301 8.95769 10.9559 9.404 9.77716L5.284 5.8867C1.876 8.74789 0 12 0 12C0 12 6 22.3872 16 22.3872C17.9208 22.3809 19.8199 22.0029 21.58 21.2767ZM10.42 2.72334C12.1801 1.99704 14.0792 1.6191 16 1.61285C26 1.61285 32 12 32 12C32 12 30.122 15.2502 26.718 18.1152L22.594 14.221C23.0403 13.0422 23.123 11.768 22.8323 10.5466C22.5417 9.32521 21.8898 8.20686 20.9524 7.32167C20.0149 6.43649 18.8306 5.82086 17.5372 5.54643C16.2437 5.272 14.8943 5.35005 13.646 5.77149L10.42 2.72334Z" fill="#8B8B8B"/>
<path d="M11.05 11.3314C10.94 12.0572 11.0105 12.7973 11.2559 13.4929C11.5014 14.1885 11.915 14.8205 12.464 15.339C13.0131 15.8574 13.6824 16.248 14.4191 16.4798C15.1557 16.7115 15.9394 16.7781 16.708 16.6742L11.05 11.3314ZM20.95 12.6686L15.292 7.32389C16.0606 7.22001 16.8443 7.28658 17.5809 7.51834C18.3176 7.75011 18.9869 8.14069 19.536 8.65913C20.085 9.17758 20.4986 9.80965 20.7441 10.5052C20.9895 11.2008 21.06 11.9409 20.95 12.6667V12.6686ZM27.292 24L3.29199 1.33711L4.70799 0L28.708 22.6629L27.292 24Z" fill="#8B8B8B"/>
</g>
</svg>
