<svg width="64" height="50" viewBox="0 0 64 50" fill="none" xmlns="http://www.w3.org/2000/svg">
<path id="Vector" d="M28.8 40.625H35.2V27.5L40.32 32.5L44.8 28.125L32 15.625L19.2 28.125L23.68 32.5L28.8 27.5V40.625ZM6.4 50C4.64 50 3.1328 49.3875 1.8784 48.1625C0.624005 46.9375 -0.0021279 45.4667 5.43294e-06 43.75V6.25C5.43294e-06 4.53125 0.627205 3.05938 1.88161 1.83438C3.136 0.60938 4.64214 -0.00207803 6.4 5.3056e-06H25.6L32 6.25H57.6C59.36 6.25 60.8672 6.8625 62.1216 8.0875C63.376 9.3125 64.0021 10.7833 64 12.5V43.75C64 45.4687 63.3728 46.9406 62.1184 48.1656C60.864 49.3906 59.3579 50.0021 57.6 50H6.4Z" fill="#8B8B8B"/>
</svg>
