<svg width="24" height="24" viewBox="0 0 24 24" fill="none" xmlns="http://www.w3.org/2000/svg">
<path d="M9.99885 0.0187437C10.443 -0.0476714 10.8953 0.0639188 11.2586 0.329526C11.6218 0.595133 11.867 0.99355 11.9414 1.43913C12.0158 1.88471 11.9135 2.34188 11.6565 2.71235C11.3994 3.08283 11.0082 3.33703 10.5669 3.42032C8.57044 3.76146 6.75847 4.80261 5.45192 6.35933C4.14538 7.91604 3.4286 9.88785 3.42857 11.9254C3.42857 14.2128 4.33163 16.4066 5.93908 18.024C7.54654 19.6414 9.72671 20.5501 12 20.5501V24C5.37257 24 0 18.5952 0 11.9254C0 6.00888 4.25828 0.989309 9.99885 0.0187437Z" fill="#33054D"/>
<path d="M17.5909 3.06835C17.7412 2.89959 17.9231 2.76229 18.1262 2.66431C18.3293 2.56632 18.5496 2.50957 18.7745 2.49729C18.9994 2.485 19.2245 2.51744 19.4369 2.59273C19.6494 2.66803 19.845 2.78471 20.0126 2.9361C21.2688 4.06747 22.2734 5.45306 22.9605 7.00216C23.6477 8.55126 24.0019 10.2289 24 11.9253C24 18.5951 18.6274 23.9999 12 23.9999V20.55C13.735 20.5501 15.4292 20.0203 16.8586 19.0307C18.288 18.0411 19.3853 16.6384 20.0054 15.0078C20.6255 13.3773 20.7393 11.5959 20.3316 9.89891C19.9239 8.20196 19.0141 6.66945 17.7223 5.50396C17.3839 5.19849 17.18 4.77029 17.1553 4.31354C17.1307 3.85679 17.2873 3.40889 17.5909 3.06835Z" fill="url(#paint0_linear_757_1191)"/>
<defs>
<linearGradient id="paint0_linear_757_1191" x1="18" y1="2.49475" x2="18" y2="23.9999" gradientUnits="userSpaceOnUse">
<stop stop-color="white"/>
<stop offset="0.223958" stop-color="#A18DAC"/>
<stop offset="0.411458" stop-color="#860FCA"/>
<stop offset="0.963542" stop-color="#2F0447"/>
</linearGradient>
</defs>
</svg>
