<svg width="20" height="20" viewBox="0 0 20 20" fill="none" xmlns="http://www.w3.org/2000/svg">
<path d="M3.63636 5L4.92727 6.775L3.48182 8.7625L13.6364 8.7625V11.2375L3.48182 11.2375L4.92727 13.225L3.63636 15L0 10L3.63636 5ZM8.18182 0L18.1818 0C19.1818 0 20 1.125 20 2.5L20 17.5C20 18.8875 19.1818 20 18.1818 20L8.18182 20C7.17273 20 6.36364 18.8875 6.36364 17.5L6.36364 13.75L8.18182 13.75L8.18182 17.5L18.1818 17.5L18.1818 2.5L8.18182 2.5L8.18182 6.25H6.36364V2.5C6.36364 1.125 7.17273 0 8.18182 0Z" fill="#000000"/>
</svg>
