<svg width="20" height="24" viewBox="0 0 20 24" fill="none" xmlns="http://www.w3.org/2000/svg">
<path d="M5.33561 15.2161C5.10561 15.2161 4.95061 15.2377 4.87061 15.2593V16.6729C4.96561 16.6945 5.08435 16.7005 5.2481 16.7005C5.84685 16.7005 6.21561 16.4101 6.21561 15.9193C6.21561 15.4801 5.89811 15.2161 5.33561 15.2161ZM9.69435 15.2305C9.44435 15.2305 9.28186 15.2521 9.18561 15.2737V18.4057C9.28186 18.4273 9.43685 18.4273 9.57685 18.4273C10.5981 18.4345 11.2631 17.8945 11.2631 16.7521C11.2706 15.7561 10.6644 15.2305 9.69435 15.2305Z" fill="#8B8B8B"/>
<path d="M12.5 0H2.5C1.83696 0 1.20107 0.252856 0.732233 0.702944C0.263392 1.15303 0 1.76348 0 2.4V21.6C0 22.2365 0.263392 22.847 0.732233 23.2971C1.20107 23.7471 1.83696 24 2.5 24H17.5C18.163 24 18.7989 23.7471 19.2678 23.2971C19.7366 22.847 20 22.2365 20 21.6V7.2L12.5 0ZM6.8725 17.028C6.48625 17.376 5.91625 17.532 5.2525 17.532C5.1238 17.5333 4.99516 17.5261 4.8675 17.5104V19.2216H3.75V14.4984C4.25432 14.4262 4.7639 14.3933 5.27375 14.4C5.97 14.4 6.465 14.5272 6.79875 14.7828C7.11625 15.0252 7.33125 15.4224 7.33125 15.8904C7.33 16.3608 7.1675 16.758 6.8725 17.028ZM11.6313 18.654C11.1063 19.0728 10.3075 19.272 9.33125 19.272C8.74625 19.272 8.3325 19.236 8.05125 19.2V14.4996C8.55575 14.4289 9.06517 14.3956 9.575 14.4C10.5212 14.4 11.1363 14.5632 11.6163 14.9112C12.135 15.2808 12.46 15.87 12.46 16.716C12.46 17.6316 12.1113 18.264 11.6313 18.654ZM16.25 15.324H14.335V16.4172H16.125V17.298H14.335V19.2228H13.2025V14.436H16.25V15.324ZM12.5 8.4H11.25V2.4L17.5 8.4H12.5Z" fill="#8B8B8B"/>
</svg>
