<svg width="36" height="34" viewBox="0 0 36 34" fill="none" xmlns="http://www.w3.org/2000/svg">
<path d="M28.614 0.0875244L35.906 7.13036V33.9125H8.66602V34H35.999V7.219L28.614 0.0875244Z" fill="#180024"/>
<path d="M28.5268 0H8.57617V33.9125H35.9092V7.13147L28.5268 0Z" fill="#FEFDFF"/>
<path d="M8.37447 1.82129H0V10.1112H26.3422V1.82129H8.37447Z" fill="#7A7B7C"/>
<path d="M26.4781 9.97053H0.166016V1.67456H26.4781V9.97053Z" fill="#DD2025"/>
<path d="M8.89259 3.07674H7.17969V8.90528H8.52694V6.93936L8.82444 6.95515C9.11351 6.95054 9.39987 6.90256 9.67237 6.81308C9.91129 6.73694 10.1311 6.61674 10.3185 6.45972C10.5092 6.31015 10.6595 6.12137 10.7575 5.90844C10.889 5.55447 10.9359 5.17829 10.8951 4.80587C10.8869 4.53983 10.8366 4.27635 10.7457 4.02387C10.663 3.84162 10.5402 3.67732 10.3852 3.54143C10.2302 3.40555 10.0463 3.30105 9.84536 3.23459C9.6716 3.1763 9.49206 3.13401 9.30935 3.10831C9.17098 3.08853 9.03127 3.07798 8.89128 3.07674M8.64358 5.8623H8.52694V4.06516H8.77988C8.89151 4.0577 9.00353 4.07358 9.10765 4.11162C9.21177 4.14966 9.30533 4.2089 9.38143 4.28494C9.53911 4.48046 9.62335 4.71845 9.62126 4.96251C9.62126 5.26123 9.62126 5.53201 9.33031 5.72265C9.12071 5.82947 8.88213 5.87877 8.64358 5.8623ZM13.4546 3.06095C13.3092 3.06095 13.1676 3.07066 13.068 3.07431L12.7561 3.08159H11.7339V8.91014H12.937C13.3967 8.92182 13.8545 8.84962 14.2842 8.69764C14.6301 8.57053 14.9364 8.36563 15.1754 8.10143C15.4079 7.83484 15.5747 7.52445 15.6642 7.19193C15.7672 6.81535 15.8174 6.42805 15.8137 6.03958C15.8391 5.58077 15.8008 5.12084 15.6996 4.67109C15.6037 4.34003 15.424 4.03492 15.1754 3.78102C14.9804 3.576 14.7417 3.41063 14.4743 3.29531C14.2446 3.19685 14.0031 3.12428 13.7548 3.07916C13.656 3.06405 13.556 3.05714 13.456 3.05852M13.2174 7.83915H13.0864V4.11859H13.1034C13.3736 4.08979 13.647 4.13496 13.8897 4.24852C14.0675 4.38006 14.2124 4.54577 14.3144 4.73423C14.4244 4.93256 14.4878 5.15025 14.5005 5.37294C14.5123 5.64008 14.5005 5.85865 14.5005 6.03958C14.5058 6.248 14.4913 6.45644 14.4572 6.66251C14.4168 6.87407 14.3422 7.07876 14.2357 7.26965C14.1153 7.44712 13.9525 7.59666 13.76 7.70679C13.5983 7.80369 13.4068 7.84889 13.2148 7.8355M19.8725 3.08159H16.6878V8.91014H18.035V6.59815H19.7388V5.51501H18.035V4.16473H19.8698V3.08159" fill="#464648"/>
<path d="M25.5746 22.1669C25.5746 22.1669 29.7526 21.4651 29.7526 22.7874C29.7526 24.1098 27.1643 23.5718 25.5746 22.1669ZM22.4856 22.2677C21.8218 22.4036 21.1749 22.6026 20.5551 22.8615L21.0794 21.7686C21.6036 20.6758 22.1475 19.1858 22.1475 19.1858C22.773 20.1613 23.5008 21.0773 24.3204 21.9204C23.7023 22.0058 23.0898 22.1225 22.4856 22.2701V22.2677ZM20.8317 14.3749C20.8317 13.2225 21.234 12.908 21.5472 12.908C21.8605 12.908 22.213 13.0477 22.2248 14.0482C22.1227 15.0543 21.8954 16.0461 21.5472 17.0038C21.0703 16.1997 20.8235 15.2959 20.8304 14.3785L20.8317 14.3749ZM14.7389 27.1442C13.4571 26.4339 17.4268 24.247 18.1463 24.1765C18.1424 24.1778 16.0809 27.8874 14.7389 27.1442ZM30.9728 22.944C30.9597 22.8226 30.8417 21.4784 28.2599 21.5355C27.1838 21.5194 26.1082 21.5897 25.0451 21.7456C24.0154 20.7843 23.1286 19.7001 22.4083 18.5216C22.8621 17.3067 23.1367 16.0405 23.2247 14.7574C23.1867 13.3002 22.8106 12.4648 21.6049 12.4769C20.3992 12.4891 20.2236 13.4666 20.3821 14.9213C20.5375 15.8988 20.8305 16.8533 21.2537 17.7603C21.2537 17.7603 20.6967 19.3668 19.9601 20.9648C19.2236 22.5628 18.7204 23.4006 18.7204 23.4006C17.4396 23.7869 16.2339 24.3609 15.1491 25.1006C14.0692 26.032 13.6301 26.7472 14.1989 27.4624C14.6891 28.0792 16.4046 28.2189 17.938 26.3574C18.7527 25.3959 19.497 24.385 20.1659 23.3314C20.1659 23.3314 22.5039 22.7376 23.2313 22.5749C23.9587 22.4122 24.838 22.2835 24.838 22.2835C24.838 22.2835 26.9729 24.2737 29.0318 24.2033C31.0907 24.1328 30.9911 23.063 30.978 22.9465" fill="#DD2025"/>
<path d="M28.4219 0.0935059V7.22498H35.8043L28.4219 0.0935059Z" fill="#180024"/>
<path d="M28.5273 0V7.13147H35.9097L28.5273 0Z" fill="#FEFDFF"/>
<path d="M8.79493 2.98396H7.08203V8.81251H8.43453V6.8478L8.73334 6.86359C9.02241 6.85898 9.30876 6.811 9.58127 6.72152C9.82017 6.64535 10.04 6.52515 10.2274 6.36816C10.4166 6.21819 10.5656 6.02944 10.6625 5.81688C10.7939 5.46291 10.8409 5.08673 10.8001 4.71431C10.7919 4.44827 10.7416 4.18479 10.6507 3.93232C10.568 3.75006 10.4452 3.58576 10.2902 3.44987C10.1352 3.31399 9.95131 3.20949 9.75033 3.14303C9.57576 3.08418 9.39533 3.04147 9.21169 3.01553C9.07333 2.99575 8.93361 2.9852 8.79362 2.98396M8.54593 5.76952H8.42929V3.97239H8.68353C8.79517 3.96493 8.90718 3.98081 9.0113 4.01885C9.11542 4.05689 9.20899 4.11612 9.28508 4.19217C9.44276 4.38769 9.527 4.62567 9.52491 4.86974C9.52491 5.16845 9.52491 5.43924 9.23397 5.62988C9.02437 5.73669 8.78579 5.78479 8.54724 5.76831M13.357 2.96818C13.2115 2.96818 13.07 2.97789 12.9704 2.98153L12.6624 2.98882H11.6402V8.81737H12.8432C13.303 8.82904 13.7608 8.75684 14.1905 8.60487C14.5364 8.47776 14.8426 8.27286 15.0817 8.00866C15.3141 7.74207 15.481 7.43168 15.5705 7.09916C15.6735 6.72257 15.7237 6.33527 15.7199 5.94681C15.7453 5.488 15.707 5.02807 15.6059 4.57831C15.5099 4.24725 15.3302 3.94214 15.0817 3.68825C14.8867 3.48323 14.6479 3.31785 14.3805 3.20253C14.1509 3.10408 13.9093 3.03151 13.661 2.98639C13.5623 2.97128 13.4623 2.96437 13.3622 2.96575M13.1237 7.74637H12.9927V4.02582H13.0097C13.2799 3.99701 13.5532 4.04218 13.796 4.15574C13.9738 4.28728 14.1187 4.453 14.2206 4.64146C14.3307 4.83979 14.3941 5.05747 14.4067 5.28017C14.4185 5.54731 14.4067 5.76588 14.4067 5.94681C14.4121 6.15522 14.3976 6.36367 14.3635 6.56973C14.3231 6.7813 14.2484 6.98599 14.142 7.17687C14.0216 7.35435 13.8588 7.50389 13.6663 7.61402C13.5046 7.71091 13.3131 7.75612 13.1211 7.74273M19.7748 2.98882H16.5901V8.81737H17.9374V6.50538H19.6411V5.42224H17.9374V4.07196H19.7722V2.98882" fill="white"/>
</svg>
