<svg width="20" height="20" viewBox="0 0 20 20" fill="none" xmlns="http://www.w3.org/2000/svg">
<path d="M16.4103 10.5263C16.759 10.5263 17.0974 10.5684 17.4359 10.6211V5.26316H1.02564V18.9474H10.6154C10.3897 18.2842 10.2564 17.5789 10.2564 16.8421C10.2564 13.3579 13.0154 10.5263 16.4103 10.5263ZM6.15385 10.5263V8.94737C6.15385 8.65263 6.37949 8.42105 6.66667 8.42105H11.7949C12.0821 8.42105 12.3077 8.65263 12.3077 8.94737V10.5263H6.15385ZM18.4615 4.21053H0V0H18.4615V4.21053ZM20 15L15.1282 20L12.3077 16.8421L13.4974 15.6211L15.1282 17.2947L18.8103 13.5158L20 15Z" fill="#000000"/>
</svg>
